<svg xmlns="http://www.w3.org/2000/svg" version="1.1" xmlns:xlink="http://www.w3.org/1999/xlink" xmlns:svgjs="http://svgjs.dev/svgjs" width="1440" height="560" preserveAspectRatio="none" viewBox="0 0 1440 560">
    <g mask="url(&quot;#SvgjsMask1060&quot;)" fill="none">
        <rect width="1440" height="560" x="0" y="0" fill="rgba(135, 189, 223, 1)"></rect>
        <path d="M1138.7805924610132 323.61073245090205L1054.5432581753169 431.4296035881301 1162.362129312545 515.6669378738263 1246.599463598241 407.8480667365983z" fill="rgba(28, 83, 142, 0.4)" class="triangle-float2"></path>
        <path d="M313.94114895832206 119.72712751698178L332.4075288620857 59.326320454833436 232.57312831698135 61.82715413026213z" fill="rgba(28, 83, 142, 0.4)" class="triangle-float3"></path>
        <path d="M788.406,646.617C833.434,647.35,866.089,609.264,888.781,570.365C911.705,531.069,927.978,484.34,906.457,444.258C884.012,402.455,835.809,381.378,788.406,383.42C744.289,385.32,707.002,414.483,686.746,453.721C668.117,489.806,674.606,531.26,693.54,567.186C714.149,606.292,744.208,645.897,788.406,646.617" fill="rgba(28, 83, 142, 0.4)" class="triangle-float2"></path>
        <path d="M520.772,456.675C535.094,456.099,545.422,444.633,552.574,432.211C559.707,419.822,563.857,405.431,557.708,392.525C550.672,377.756,537.129,365.736,520.772,365.461C504.025,365.179,489.419,376.423,481.62,391.246C474.335,405.092,476.171,421.536,484.205,434.962C492.007,448,505.59,457.286,520.772,456.675" fill="rgba(28, 83, 142, 0.4)" class="triangle-float2"></path>
        <path d="M268.0927571693762 138.00083054943335L170.4386212096897 139.70538983311866 172.143180493375 237.35952579280516 269.7973164530615 235.65496650911984z" fill="rgba(28, 83, 142, 0.4)" class="triangle-float2"></path>
        <path d="M-13.981777871372845 61.5361289131829L-53.098844721387835 145.42294948307506 92.28991955845794 162.15513947315148z" fill="rgba(28, 83, 142, 0.4)" class="triangle-float2"></path>
        <path d="M1137.0387803977212 50.957824542952594L1244.7803038947081 94.48822564717005 1288.3107049989255-13.253297849816818 1180.5691815019386-56.78369895403428z" fill="rgba(28, 83, 142, 0.4)" class="triangle-float1"></path>
        <path d="M1260.3720467839935 380.9077904198617L1330.6007502259981 287.711153188034 1237.4041129941704 217.48244974602946 1167.1754095521658 310.67908697785714z" fill="rgba(28, 83, 142, 0.4)" class="triangle-float1"></path>
        <path d="M357.2475902117618 216.64049866142506L486.5759593870678 232.52002568290376 373.12711723324054 87.31212948611903z" fill="rgba(28, 83, 142, 0.4)" class="triangle-float1"></path>
        <path d="M48.49 431.71 a98.81 98.81 0 1 0 197.62 0 a98.81 98.81 0 1 0 -197.62 0z" fill="rgba(28, 83, 142, 0.4)" class="triangle-float2"></path>
        <path d="M159.562,276.414C193.581,275.443,223.184,254.241,239.267,224.248C254.481,195.876,250.148,163.032,235.822,134.201C219.326,101.003,196.593,65.543,159.562,63.842C120.568,62.051,88.47,92.137,70.118,126.589C52.908,158.896,52.798,197.607,71.562,229.037C89.865,259.695,123.871,277.433,159.562,276.414" fill="rgba(28, 83, 142, 0.4)" class="triangle-float3"></path>
        <path d="M1011.84 106.68 a177.63 177.63 0 1 0 355.26 0 a177.63 177.63 0 1 0 -355.26 0z" fill="rgba(28, 83, 142, 0.4)" class="triangle-float1"></path>
        <path d="M1374.4083375343118 232.1564838656539L1486.232606579124 156.7300620052491 1410.8061847187191 44.90579296043691 1298.981915673907 120.33221482084173z" fill="rgba(28, 83, 142, 0.4)" class="triangle-float1"></path>
        <path d="M-105.30583185149989 292.9311689285173L4.975604587543188 376.034192008312 88.0786276673379 265.75275556926897-22.20280877170518 182.64973248947422z" fill="rgba(28, 83, 142, 0.4)" class="triangle-float3"></path>
        <path d="M582.4866084559641 361.04837999325866L655.660147733102 290.385514500422 584.9972822402653 217.21197522328407 511.8237429631274 287.87484071612073z" fill="rgba(28, 83, 142, 0.4)" class="triangle-float1"></path>
        <path d="M669.3726240435716-60.65879332265599L629.6554562418964 14.038335290555715 744.0697526567833-20.941625520980814z" fill="rgba(28, 83, 142, 0.4)" class="triangle-float2"></path>
        <path d="M1386.75,580.141C1429.961,578.848,1456.529,537.993,1477.65,500.274C1498.107,463.741,1517.003,420.938,1496.264,384.565C1475.398,347.969,1428.855,339.486,1386.75,340.85C1347.434,342.124,1309.373,357.711,1288.875,391.285C1267.509,426.28,1267.044,469.609,1285.91,506.013C1306.484,545.711,1342.057,581.479,1386.75,580.141" fill="rgba(28, 83, 142, 0.4)" class="triangle-float1"></path>
        <path d="M816.061,156.646C839.693,156.568,864.245,149.745,876.362,129.456C888.735,108.736,883.914,83.316,872.574,62.013C860.358,39.065,842.058,16.322,816.061,16.175C789.896,16.027,770.8,38.312,758.429,61.368C746.846,82.956,742.382,108.897,755.062,129.859C767.38,150.224,792.26,156.725,816.061,156.646" fill="rgba(28, 83, 142, 0.4)" class="triangle-float2"></path>
        <path d="M350.4458730409974 456.2023189806867L263.5005116249987 521.7203482133638 405.2502361820136 619.3793757210233z" fill="rgba(28, 83, 142, 0.4)" class="triangle-float1"></path>
        <path d="M586.57 76.95 a130.96 130.96 0 1 0 261.92 0 a130.96 130.96 0 1 0 -261.92 0z" fill="rgba(28, 83, 142, 0.4)" class="triangle-float2"></path>
    </g>
    <defs>
        <mask id="SvgjsMask1060">
            <rect width="1440" height="560" fill="#ffffff"></rect>
        </mask>
        <style>
            @keyframes float1 {
                    0%{transform: translate(0, 0)}
                    50%{transform: translate(-10px, 0)}
                    100%{transform: translate(0, 0)}
                }

                .triangle-float1 {
                    animation: float1 5s infinite;
                }

                @keyframes float2 {
                    0%{transform: translate(0, 0)}
                    50%{transform: translate(-5px, -5px)}
                    100%{transform: translate(0, 0)}
                }

                .triangle-float2 {
                    animation: float2 4s infinite;
                }

                @keyframes float3 {
                    0%{transform: translate(0, 0)}
                    50%{transform: translate(0, -10px)}
                    100%{transform: translate(0, 0)}
                }

                .triangle-float3 {
                    animation: float3 6s infinite;
                }
        </style>
    </defs>
</svg>