<svg xmlns="http://www.w3.org/2000/svg" version="1.1" xmlns:xlink="http://www.w3.org/1999/xlink" xmlns:svgjs="http://svgjs.dev/svgjs" width="1440" height="752" preserveAspectRatio="none" viewBox="0 0 1440 752">
    <g mask="url(&quot;#SvgjsMask1033&quot;)" fill="none">
        <rect width="1440" height="752" x="0" y="0" fill="#0e2a47"></rect>
        <path d="M1424.39 366.69L1460.13 366.69L1460.13 402.43L1424.39 402.43z" fill="#037b0b"></path>
        <path d="M682.17 204.78L752.6 204.78L752.6 234.17L682.17 234.17z" fill="#d3b714"></path>
        <path d="M352.85 649.47L385.56 649.47L385.56 682.18L352.85 682.18z" stroke="#d3b714"></path>
        <path d="M1043.84 533.64 a71.89 71.89 0 1 0 143.78 0 a71.89 71.89 0 1 0 -143.78 0z" fill="#d3b714"></path>
        <path d="M458.96 252.3a44.03 44.03 0 1 0-85.33 21.78z" fill="#d3b714"></path>
        <path d="M134.31 651.53L187.88 651.53L187.88 705.1L134.31 705.1z" fill="#e73635"></path>
        <path d="M725.17 28.02 a5.26 5.26 0 1 0 10.52 0 a5.26 5.26 0 1 0 -10.52 0z" fill="#d3b714"></path>
        <path d="M297.78-68.31a69.29 69.29 0 1 0 1.46 138.57z" stroke="#037b0b"></path>
        <path d="M1272.05 498.15L1341 498.15L1341 528.3L1272.05 528.3z" stroke="#e73635"></path>
        <path d="M1251.32 192.52L1299.78 192.52L1299.78 240.98L1251.32 240.98z" fill="#e73635"></path>
        <path d="M482.96 588.39L557.28 588.39L557.28 662.71L482.96 662.71z" stroke="#e73635"></path>
        <path d="M1086.43 95.5L1119.27 95.5L1119.27 128.34L1086.43 128.34z" fill="#e73635"></path>
        <path d="M32.43 632.52L35.35 632.52L35.35 694.21L32.43 694.21z" stroke="#e73635"></path>
        <path d="M224.16 70.2L238.14 70.2L238.14 84.18L224.16 84.18z" stroke="#037b0b"></path>
        <path d="M1147.97 289.13L1205.63 289.13L1205.63 343.21L1147.97 343.21z" stroke="#d3b714"></path>
        <path d="M1396.35 416.42a72.54 72.54 0 1 0 48.11 136.87z" stroke="#d3b714"></path>
        <path d="M1201.92 145.23L1265.12 145.23L1265.12 208.43L1201.92 208.43z" fill="#e73635"></path>
        <path d="M1395 746.92L1441.73 746.92L1441.73 793.65L1395 793.65z" fill="#d3b714"></path>
        <path d="M381.97 383.33 a71.95 71.95 0 1 0 143.9 0 a71.95 71.95 0 1 0 -143.9 0z" fill="#e73635"></path>
        <path d="M45.03 159L77.23 159L77.23 220.43L45.03 220.43z" fill="#d3b714"></path>
        <path d="M666.25 342.41 a35.21 35.21 0 1 0 70.42 0 a35.21 35.21 0 1 0 -70.42 0z" stroke="#037b0b"></path>
        <path d="M67.63 706.75L77.2 706.75L77.2 716.32L67.63 716.32z" stroke="#037b0b"></path>
        <path d="M96.71 227.15L159.49 227.15L159.49 282.12L96.71 282.12z" fill="#e73635"></path>
        <path d="M224.65 671.64 a35.85 35.85 0 1 0 71.7 0 a35.85 35.85 0 1 0 -71.7 0z" fill="#037b0b"></path>
    </g>
    <defs>
        <mask id="SvgjsMask1033">
            <rect width="1440" height="752" fill="#ffffff"></rect>
        </mask>
    </defs>
</svg>